<?xml version="1.0" encoding="UTF-8"?><svg id="Layer_1" xmlns="http://www.w3.org/2000/svg" xmlns:xlink="http://www.w3.org/1999/xlink" viewBox="0 0 841.89 595.28"><defs><style>.cls-1{fill:url(#linear-gradient);}</style><linearGradient id="linear-gradient" x1="461.66" y1="311.94" x2="264.28" y2="231.71" gradientUnits="userSpaceOnUse"><stop offset="0" stop-color="#000"/><stop offset="1" stop-color="#58595b"/></linearGradient></defs><g><path d="M414.38,403.88c2.09,1.71,4.54,2.32,7.13,2.46,1.67,.09,3.35,.03,5.02,.05,3.31,.04,6.5-.42,9.15-2.4,.93,.54,1.76,1.11,2.67,1.52,1.51,.68,3.13,.86,4.77,.86,21.32,0,46.02,0,67.34,0,2.21,0,4.39-.27,6.52-.86,4.49-1.23,7.34-4.11,8.52-8.57,1.09-4.08,1.2-8.19,0-12.28-1.06-3.61-2.86-6.79-5.71-9.32-.37-.33-.86-.5-1.35-.5-12.14,.01-24.28,0-36.42,.02-1.88,0-3.76,.11-5.63,.28-4.72,.43-7.56,2.86-8.66,7.48-.38,1.57-.44,3.21-.67,4.82-.08,.55,.12,.83,.66,1.07,2.53,1.16,5.01,2.44,7.5,3.7,.23,.12,.46,.21,.78,.35,0-.68-.03-1.25,.01-1.82,.04-.51-.11-.81-.6-.99-.58-.21-1-.62-1.06-1.24-.23-2.23,.39-3.99,2.91-4.44,1.41-.25,2.87-.31,4.31-.32,11.64-.03,23.27,0,34.91-.04,.94,0,1.41,.34,1.82,1.1,1.13,2.11,1.26,4.36,1.08,6.67-.2,2.57-1.96,4.77-4.45,5.44-.59,.16-1.21,.3-1.82,.32-2.59,.11-5.18,.25-7.77,.26-19.28,.02-41.93,.01-61.21,0-.59,0-1.18-.04-1.76-.12-1.93-.27-3.46-1.82-3.63-3.76-.04-.5-.06-1.01-.06-1.51,0-5.14,.06-10.27-.04-15.41-.03-1.48,.28-2.45,1.74-2.91,.18-.06,.41-.3,.42-.46,.04-.81,.02-1.62,.02-2.51-.7,.32-.86,.37-1.61,.88-1.91,1.32-4.03,2.31-6.23,3.06-.78,.27-.98,.55-.97,1.16,.02,3.83,.01,7.66,0,11.49,0,1.97,.02,3.94-.03,5.91-.07,2.31-1.12,3.64-3.32,3.96-2.73,.39-5.49,.41-8.22-.05-1.69-.29-2.59-1.28-2.87-2.99-.11-.65-.14-1.32-.15-1.98-.01-5.5,0-17.33,0-17.33l-6.21,2.7c-.2,.09-.36,.5-.36,.77,0,0-.01,4.91-.02,7.36,0,2.52,.02,5.04-.04,7.57-.06,2.37-1.21,3.76-3.53,3.99-2.11,.21-4.27,.27-6.38,.09-3.1-.27-4.72-2.23-4.72-5.33,0-5.43,0-10.87,0-16.3,0-.26,0-.53,0-.91-.63,.26-.86,.33-1.37,.63-1.39,.85-2.9,1.45-4.44,1.98-.62,.21-.78,.46-.78,1,.02,4.54,.01,9.08,0,13.62,0,.62-.05,1.24-.13,1.85-.26,1.89-1.22,2.95-3.08,3.3-.87,.16-1.77,.25-2.66,.25-4.18,.03-10.34,.02-14.52,0-.71,0-1.42-.05-2.13-.14-2.07-.26-3.11-1.19-3.51-3.18-.13-.67-.16-1.37-.17-2.05-.01-9.58,.03-19.17-.04-28.75-.01-1.51,.23-2.6,1.76-3.13,.18-.06,.41-.3,.42-.47,.04-.79,.02-1.59,.02-2.5-.5,.24-.77,.33-1.13,.58-2.01,1.36-4.14,2.51-6.4,3.38-.91,.34-1.23,.59-1.23,1.33,.02,9.03,.01,18.07,.01,27.1,0,2.82,0,5.64,0,8.46-.01,3.24,1.56,5.47,4.39,6.88,1.71,.85,3.54,1.31,5.44,1.32,5.78,.04,13.56,.06,19.34,0,2.35-.03,4.59-.64,6.5-2.1,.41-.31,.68-.28,1.07-.03,1.94,1.21,4.03,1.98,6.34,2.04,2.29,.06,4.59,.16,6.88,.12,2.75-.05,5.37-.66,7.64-2.48Zm-121.75-8.17c-2.18,1.22-4.24,2.36-6.28,3.52-.14,.08-.25,.33-.25,.5,.03,3.7-.18,7.41,.46,11.1,1.35,7.87,7.6,13.94,15.39,15.71,4.43,1.01,8.93,1.3,13.47,1,3.78-.25,7.46-1,10.86-2.72,5.21-2.64,8.47-6.96,10.48-12.32,1.63-4.33,2.05-8.86,2.06-13.44,.01-7.31,.05-14.63-.04-21.94-.02-1.6,.24-2.73,1.89-3.23,.18-.06,.43-.29,.44-.45,.05-.81,.02-1.62,.02-2.5-.44,.18-.5,.17-.81,.44-2.08,1.83-4.56,3.12-7.25,3.81-.82,.21-.86,.49-.86,.94,0,2.84,.02,5.68,0,8.53-.04,6.05-.04,12.1-.16,18.15-.05,2.6-.57,5.14-1.64,7.54-1.81,4.06-4.87,6.56-9.29,7.17-2.15,.3-4.34,.37-6.52,.41-4.1,.08-8.22,.15-12.3-.44-2.34-.34-4.54-1.12-6.36-2.72-2.31-2.04-3.18-4.73-3.25-7.68-.09-3.5-.05-7.01-.07-10.52,0-.24,0-.49,0-.85Zm257.88,10.65v-1.04c0-13.82,.03-27.64-.04-41.47,0-1.58,.3-2.67,1.77-3.33,.18-.08,.4-.31,.41-.48,.04-.81,.02-1.62,.02-2.52-.36,.17-.61,.28-.85,.41-2.47,1.26-4.93,2.54-7.41,3.78-.44,.22-.55,.49-.55,.95,.01,14.33,0,28.65,0,42.98v.72h6.65Zm2.32,14.59l.19,.13c.85-.43,1.71-.85,2.55-1.31,.13-.07,.22-.34,.22-.51-.09-2.03-1.2-3.52-3.22-3.92-1.45-.29-2.96-.34-4.44-.33-1.13,0-2.28,.19-3.39,.46-1.41,.34-2.31,1.29-2.57,2.73-.36,1.98-.57,3.95,1.34,5.59h-4.79c.45,.73,.85,1.34,1.21,1.97,.23,.41,.51,.55,.99,.55,4.47-.02,8.95-.01,13.42-.01h.65v-2.53c-.3,0-.55,0-.8,0-1.95,0-3.9,0-5.85,0-1.16,0-2.29-.16-3.29-.83-1.21-.81-1.4-2.01-1.19-3.34,.18-1.16,.96-1.65,2.01-1.85,1.91-.37,3.83-.38,5.74,.04,.52,.11,1.03,.39,1.47,.7,.55,.4,.58,1.24,.2,1.64-.2,.22-.3,.54-.44,.82Z"/><path d="M414.38,403.88c-2.27,1.82-4.89,2.43-7.64,2.48-2.29,.04-4.59-.06-6.88-.12-2.31-.06-4.4-.83-6.34-2.04-.4-.25-.67-.28-1.07,.03-1.91,1.46-4.16,2.07-6.5,2.1h-19.34c-1.89,0-3.73-.46-5.44-1.31-2.84-1.41-4.4-3.64-4.39-6.88,0-2.82-.01-35.56-.01-35.56,0-.57,.19-.84,.68-1.1l8.07-4.19-.02,2.5c0,.17-.24,.41-.42,.47-1.53,.53-1.77,1.62-1.76,3.13,.07,9.58,.03,19.17,.04,28.75,0,.68,.03,1.38,.17,2.05,.4,2,1.44,2.92,3.51,3.18,.7,.09,1.42,.14,2.13,.14h14.52c.89-.01,1.79-.09,2.66-.26,1.86-.35,2.82-1.4,3.08-3.3,.08-.61,.13-1.23,.13-1.85v-13.62c0-.47,.12-.72,.58-.92l6-2.69s0,11.77,0,17.21c0,3.1,1.61,5.07,4.72,5.33,2.11,.18,4.27,.12,6.38-.09,2.32-.23,3.47-1.63,3.53-3.99l.06-14.92c0-.26,.16-.67,.36-.77,1.93-.9,6.01-2.65,6.21-2.7,0,.3,0,11.83,0,17.33,0,.66,.04,1.33,.15,1.98,.28,1.71,1.19,2.7,2.87,2.99,2.73,.47,5.49,.45,8.22,.05,2.2-.32,3.25-1.65,3.32-3.96l.02-17.4c0-.5,.13-.77,.6-1l8.22-4.1s.02,1.7-.02,2.51c0,.16-.24,.4-.42,.46-1.46,.46-1.77,1.43-1.74,2.91l.1,16.92c.19,2.12,1.42,3.44,3.54,3.75,.61,.09,1.23,.13,1.85,.13,19.28,0,41.93,.01,61.21,0,2.48,0,4.96-.13,7.44-.24,.6-.03,1.2-.11,1.79-.25,3.19-.76,4.55-2.3,4.81-5.45,.19-2.34,.06-4.62-1.08-6.75-.41-.76-.88-1.11-1.82-1.1-11.64,.04-23.27,.02-34.91,.04-1.44,0-2.9,.07-4.31,.32-2.52,.44-3.14,2.21-2.91,4.44,.06,.62,.49,1.04,1.06,1.24,.49,.18,.64,.48,.6,.99-.05,.57-.01,1.14-.01,1.82-.32-.14-.55-.24-.78-.35-2.49-1.25-4.96-2.54-7.5-3.7-.54-.25-.74-.52-.66-1.07,.23-1.61,.3-3.25,.67-4.82,1.11-4.63,3.94-7.05,8.66-7.48,1.87-.17,3.76-.28,5.63-.28,12.14-.02,24.28,0,36.42-.02,.49,0,.98,.17,1.35,.5,2.85,2.53,4.65,5.71,5.71,9.32,1.2,4.09,1.09,8.2,0,12.28-1.19,4.47-4.03,7.34-8.52,8.57-2.14,.59-4.32,.86-6.52,.86-21.32,0-46.02,0-67.34,0-1.64,0-3.27-.18-4.77-.86-.91-.41-1.74-.98-2.67-1.52-2.65,1.98-5.83,2.43-9.15,2.4-1.67-.02-3.35,.04-5.02-.05-2.58-.14-5.03-.75-7.13-2.46Z"/><path d="M292.63,395.7l.07,11.37c.08,2.96,.94,5.64,3.25,7.68,1.82,1.6,4.01,2.38,6.36,2.72,4.08,.59,8.19,.52,12.3,.44,2.18-.04,4.37-.11,6.52-.41,4.42-.61,7.48-3.11,9.29-7.17,1.07-2.4,1.59-4.95,1.64-7.54l.16-26.68c0-.34,.02-.58,.39-.77l8.53-4.41s.02,1.7-.02,2.5c0,.16-.26,.39-.44,.45-1.65,.5-1.91,1.63-1.89,3.23l.04,21.94c0,4.58-.43,9.11-2.06,13.44-2.01,5.36-5.27,9.68-10.48,12.32-3.41,1.73-7.08,2.47-10.86,2.72-4.54,.3-9.04,0-13.47-1-7.78-1.77-14.04-7.84-15.39-15.71-.63-3.69-.42-7.4-.46-11.1,0-.17,.11-.42,.25-.5l6.28-3.52Z"/><path d="M550.51,406.35h-6.65s0-29.37,0-43.7c0-.46,.11-.73,.55-.95,2.48-1.24,4.94-2.52,7.41-3.78,.24-.12,.49-.23,.85-.41,0,.9,.02,1.71-.02,2.52,0,.17-.23,.4-.41,.48-1.47,.65-1.78,1.75-1.77,3.33,.07,13.82,.04,42.51,.04,42.51Z"/><path d="M552.83,420.94c.14-.28,.23-.6,.44-.82,.37-.4,.35-1.24-.2-1.64-.43-.31-.95-.59-1.47-.7-1.9-.41-3.82-.41-5.74-.04-1.05,.2-1.84,.69-2.01,1.85-.2,1.33-.02,2.53,1.19,3.34,.99,.66,2.13,.82,3.29,.83,1.95,.01,3.9,0,5.85,0,.25,0,.5,0,.8,0v2.53h-.65c-4.47,0-8.95,0-13.42,.01-.48,0-.76-.14-.99-.55-.35-.63-.76-1.24-1.21-1.97h4.79c-1.91-1.63-1.7-3.6-1.34-5.59,.26-1.45,1.17-2.4,2.57-2.73,1.1-.27,2.26-.45,3.39-.46,1.48-.01,2.99,.04,4.44,.33,2.02,.4,3.13,1.89,3.22,3.92,0,.17-.09,.43-.22,.51-.84,.46-1.7,.88-2.55,1.31l-.19-.13Z"/><path d="M317.79,396.58l-4.75,4.75h-3.09l1.61-1.44-4.24-3.32s3.1-3.13,4.16-4.14c.14-.13,.53-.2,.66-.1l5.65,4.25Z"/></g><g><path d="M468.5,450.73c-1-.54-1.97-1.06-2.92-1.59-.07-.04-.12-.17-.12-.25,.07-.9,.12-1.81,.49-2.66,.55-1.26,1.54-1.91,2.87-2.05,.76-.08,1.53-.14,2.3-.14,4.56-.01,9.12,0,13.67-.01,.28,0,.49,.09,.68,.27,1.32,1.24,2.05,2.79,2.31,4.56,.22,1.51,.07,2.99-.54,4.39-.64,1.48-1.88,2.22-3.4,2.5-.79,.15-1.6,.23-2.4,.23-7.67,.02-28.63,.01-36.3,0-1.18,0-2.32-.18-3.31-.95-1.17,.9-2.54,.97-3.94,.96-1.41,0-16.11,0-17.51,0-1.2-.01-2.37-.17-3.37-.96-1.01,.79-2.19,.96-3.41,.96-10.42,0-44.76,0-55.18,0-.95,0-1.89-.11-2.76-.54-1.08-.54-1.66-1.4-1.64-2.63,0-.75,0-1.51,0-2.26,0-.23,.05-.37,.28-.48,.61-.29,1.2-.61,1.85-.94,.01,.15,.03,.25,.03,.36,0,.79,0,1.59,.01,2.38,.02,.77,.33,1.13,1.03,1.26,.31,.06,.63,.1,.95,.1,4.17,0,18.98,0,23.15,0,.07,0,.15,0,.29-.02-.63-.68-1.09-1.42-1.29-2.27-.43-1.75-.26-3.45,.62-5.04,.6-1.08,1.6-1.64,2.77-1.88,1.94-.41,3.89-.43,5.83-.06,1.96,.38,3.21,1.68,3.54,3.65,.2,1.15,.33,2.32,0,3.46-.21,.74-.58,1.43-.88,2.14-.01,0,.08,.02,.17,.02,2.68,0,18.64,0,21.32,0,.32,0,.64-.04,.95-.11,.66-.14,1.04-.59,1.1-1.3,.03-.31,.03-.61,.03-.92,0-2.12,0-4.25,0-6.37,0-.35,.08-.55,.41-.7,.77-.37,1.52-.79,2.28-1.18,.1-.05,.2-.09,.35-.16,0,.32,.04,.61-.02,.87-.03,.15-.22,.3-.37,.37-.33,.16-.43,.38-.43,.75,.02,2.21,0,4.43,.01,6.64,0,.35,.04,.71,.11,1.06,.11,.55,.5,.85,1.03,.95,.33,.06,.66,.1,.99,.1,1.69,0,16.67,0,18.36,0,.32,0,.64-.04,.95-.1,.66-.13,1.01-.53,1.11-1.24,.04-.27,.05-.54,.05-.8,0-2.23,0-4.45,0-6.68,0-.27,.08-.41,.32-.53,.89-.45,1.76-.91,2.7-1.41,0,.33,.04,.62-.02,.88-.03,.15-.21,.31-.36,.38-.33,.16-.44,.38-.43,.75,.02,2.21,.02,4.43,0,6.64,0,1.74,.5,2.11,2.13,2.11,7.41,.02,28.11,.02,35.53,0,1.05,0,2.12-.12,3.16-.32,1.18-.23,1.73-1.02,1.88-2.22,.17-1.34-.1-2.53-.92-3.61-.14-.19-.28-.28-.53-.28-4.34,0-8.68,0-13.02,.02-.63,0-1.28,.07-1.9,.22-.93,.22-1.5,1.34-1.21,2.25,.03,.1,.1,.21,.18,.28,.48,.43,.49,.45,.39,1.18Zm-81.82,2.58s.01-.04,.02-.06c.51-.04,1.02-.06,1.53-.12,.81-.1,1.58-.34,2.17-.94,.68-.69,.82-1.56,.79-2.48-.05-1.59-.81-2.6-2.35-2.99-1.48-.38-2.97-.35-4.43,.08-1.14,.33-1.97,1.04-2.19,2.27-.07,.38-.06,.79-.05,1.18,.03,1.29,.75,2.3,2,2.64,.82,.22,1.68,.29,2.52,.43Z"/><path d="M478.09,461.7c-.53,.51-1.05,1.01-1.59,1.53-.63-.48-1.29-.99-2.07-1.59,.58-.54,1.09-1.08,1.69-1.52,.26-.19,.69-.14,1.04-.19,.01,.03,.03,.07,.04,.1-.2,.15-.39,.3-.63,.47,.57,.45,1.04,.82,1.52,1.19Z"/><path d="M415.71,460.13c-.16,.16-.33,.32-.51,.5,.47,.37,.94,.74,1.39,1.09-.52,.52-1.03,1.03-1.56,1.55-.61-.46-1.27-.97-1.97-1.5,.55-.56,1.04-1.15,1.63-1.62,.22-.18,.65-.09,.99-.12,.01,.03,.02,.07,.04,.1Z"/><path d="M388.68,438.88c-.57,.54-1.06,1.07-1.63,1.49-.26,.19-.7,.15-1.06,.22,0-.03-.01-.07-.02-.1,.15-.16,.31-.32,.5-.52-.49-.39-.96-.76-1.42-1.12,.52-.52,1.03-1.02,1.56-1.55,.63,.48,1.29,.99,2.06,1.57Z"/><path d="M439.98,438.85c.53-.52,1.04-1.03,1.56-1.55,.63,.49,1.3,.99,2.06,1.58-.58,.55-1.09,1.11-1.69,1.56-.24,.18-.67,.09-1.01,.13,0-.03-.02-.07-.03-.1,.17-.15,.33-.3,.53-.49-.48-.38-.94-.74-1.42-1.12Z"/><path d="M419.92,460.13c-.18,.15-.37,.3-.57,.47,.54,.42,1.01,.79,1.46,1.14-.52,.52-1.03,1.03-1.55,1.55-.64-.48-1.29-.99-2-1.52,.56-.56,1.06-1.16,1.66-1.64,.21-.17,.65-.07,.98-.09l.03,.08Z"/></g><g><path class="cls-1" d="M391.17,244.52l-.88,.5c-3.86,2.21-3.86,7.78,0,9.99l64.13,36.75s6.15,3.99,4.8,12.11c-1.35,8.12-4.94,12.12-9.97,15l-27.05,15.5c-.56,.32-1.25-.06-1.29-.7-.52-8.84-5.87-11.23-5.87-11.23l-7.12-4.05-66.63-38.16-3.29-8.84,24.73-38.52,28.44,11.62Z"/><path d="M422.08,157.97l81.32,46.6c1.53,.88,3.43-.23,3.43-1.99v-19.33c0-.82-.44-1.58-1.15-1.99l-83.6-47.91c-.71-.4-1.57-.4-2.28,0l-83.6,47.91c-.71,.41-1.15,1.17-1.15,1.99v19.33c0,1.76,1.9,2.86,3.43,1.99l81.32-46.6c.71-.4,1.57-.4,2.28,0Z"/><path d="M341.28,280.25v-2.99c0-2.57,1.38-4.95,3.61-6.23l3.14-1.8,71.77-41.12c.71-.4,1.57-.4,2.28,0l81.32,46.6c1.53,.88,3.43-.23,3.43-1.99v-52.55c0-.82-.44-1.58-1.15-1.99l-83.6-47.91c-.71-.4-1.57-.4-2.28,0l-83.6,47.91c-.71,.41-1.15,1.17-1.15,1.99v45.06s0,11.42,6.23,15.01"/></g></svg>