<?xml version="1.0" encoding="UTF-8"?><svg id="Layer_1" xmlns="http://www.w3.org/2000/svg" xmlns:xlink="http://www.w3.org/1999/xlink" viewBox="0 0 841.89 595.28"><defs><style>.cls-1{fill:url(#linear-gradient);}</style><linearGradient id="linear-gradient" x1="461.66" y1="375.81" x2="264.28" y2="295.58" gradientUnits="userSpaceOnUse"><stop offset="0" stop-color="#000"/><stop offset="1" stop-color="#58595b"/></linearGradient></defs><path class="cls-1" d="M391.17,308.38l-.88,.5c-3.86,2.21-3.86,7.78,0,9.99l64.13,36.75s6.15,3.99,4.8,12.11c-1.35,8.12-4.94,12.12-9.97,15l-27.05,15.5c-.56,.32-1.25-.06-1.29-.7-.52-8.84-5.87-11.23-5.87-11.23l-7.12-4.05-66.63-38.16-3.29-8.84,24.73-38.52,28.44,11.62Z"/><path d="M422.08,221.83l81.32,46.6c1.53,.88,3.43-.23,3.43-1.99v-19.33c0-.82-.44-1.58-1.15-1.99l-83.6-47.91c-.71-.4-1.57-.4-2.28,0l-83.6,47.91c-.71,.41-1.15,1.17-1.15,1.99v19.33c0,1.76,1.9,2.86,3.43,1.99l81.32-46.6c.71-.4,1.57-.4,2.28,0Z"/><path d="M341.28,344.11v-2.99c0-2.57,1.38-4.95,3.61-6.23l3.14-1.8,71.77-41.12c.71-.4,1.57-.4,2.28,0l81.32,46.6c1.53,.88,3.43-.23,3.43-1.99v-52.55c0-.82-.44-1.58-1.15-1.99l-83.6-47.91c-.71-.4-1.57-.4-2.28,0l-83.6,47.91c-.71,.41-1.15,1.17-1.15,1.99v45.06s0,11.42,6.23,15.01"/></svg>