<?xml version="1.0" encoding="UTF-8"?><svg id="Layer_1" xmlns="http://www.w3.org/2000/svg" xmlns:xlink="http://www.w3.org/1999/xlink" viewBox="0 0 841.89 595.28"><defs><style>.cls-1{fill:#fff;}.cls-1,.cls-2{stroke:#000;stroke-miterlimit:10;}.cls-2{fill:url(#linear-gradient);}</style><linearGradient id="linear-gradient" x1="336.77" y1="285.3" x2="459.98" y2="285.3" gradientUnits="userSpaceOnUse"><stop offset="0" stop-color="#fff"/><stop offset="1" stop-color="#e6e7e8"/></linearGradient></defs><g><g><rect x="286.94" y="359.24" width="8" height="60.56"/><polygon points="361.54 419.81 361.54 359.24 353.54 359.24 353.54 383.46 319.16 383.46 319.16 359.24 311.16 359.24 311.16 419.81 319.16 419.81 319.16 390.9 353.54 390.9 353.54 419.81 361.54 419.81"/><path d="M475.35,404.77l6.5,15.03h8.74l-28.52-63.51-29.57,63.51h8.58l6.9-15.03h27.38Zm-13.42-30.81l10.19,23.37h-20.88l10.68-23.37Z"/><polygon points="554.95 359.24 546.95 359.24 546.95 403.27 501.8 356.04 501.8 419.81 509.8 419.81 509.8 375.46 554.95 422.58 554.95 359.24"/><path d="M379.53,411.9c2.12,3.23,5.08,5.68,8.81,7.29,3.72,1.6,8.39,2.42,13.89,2.42,4.34,0,8.3-.81,11.77-2.4,3.47-1.59,6.18-3.85,8.04-6.72,1.86-2.87,2.8-5.97,2.8-9.22s-.86-6.21-2.55-8.72c-1.69-2.51-4.35-4.61-7.9-6.25-2.46-1.12-6.88-2.39-13.49-3.89-6.49-1.47-10.56-2.92-12.09-4.31-1.56-1.39-2.32-3.13-2.32-5.3,0-2.5,1.08-4.58,3.3-6.36,2.19-1.76,5.75-2.65,10.57-2.65s8.17,.98,10.53,2.92c2.36,1.94,3.76,4.84,4.17,8.63v.12s7.96-.6,7.96-.6v-.12c-.14-3.57-1.16-6.82-3.01-9.65-1.86-2.83-4.55-5-8-6.46-3.44-1.45-7.47-2.19-11.98-2.19-4.09,0-7.87,.7-11.21,2.08-3.36,1.38-5.94,3.44-7.69,6.12-1.75,2.67-2.63,5.59-2.63,8.68,0,2.8,.72,5.37,2.15,7.64,1.43,2.26,3.63,4.18,6.54,5.7,2.27,1.21,6.12,2.45,11.78,3.81,5.57,1.34,9.21,2.34,10.82,2.96,2.51,.96,4.33,2.15,5.42,3.55,1.1,1.42,1.64,3.03,1.64,4.93s-.56,3.55-1.7,5.14c-1.13,1.56-2.88,2.81-5.2,3.71-2.33,.9-5.05,1.36-8.09,1.36-3.42,0-6.55-.6-9.29-1.79-2.73-1.19-4.78-2.77-6.07-4.69-1.3-1.92-2.14-4.43-2.49-7.44v-.12s-7.84,.68-7.84,.68v.11c.12,4.08,1.25,7.78,3.36,11Z"/></g><g><path d="M364.13,451.09h8.14v.65c0,1.48-.17,2.79-.52,3.93-.34,1.05-.91,2.04-1.72,2.96-1.83,2.06-4.16,3.09-6.98,3.09s-5.12-1-7.08-2.99c-1.97-2-2.95-4.4-2.95-7.2s1-5.28,3-7.28c2-2,4.43-3,7.3-3,1.54,0,2.98,.32,4.31,.94,1.28,.63,2.53,1.65,3.77,3.06l-2.12,2.03c-1.62-2.15-3.59-3.23-5.91-3.23-2.08,0-3.83,.72-5.25,2.16-1.41,1.41-2.12,3.18-2.12,5.31s.79,4,2.36,5.42c1.47,1.32,3.07,1.98,4.79,1.98,1.46,0,2.78-.49,3.94-1.48,1.17-.99,1.82-2.19,1.95-3.57h-4.91v-2.8Z"/><path d="M393.43,444.44h-7.9v4.74h7.67v2.8h-7.67v6.59h7.9v2.8h-10.88v-19.71h10.88v2.79Z"/><path d="M403.87,461.35v-21.05l14.37,15.04v-13.69h2.97v20.91l-14.37-15v13.8h-2.97Z"/><path d="M443.35,444.44h-7.9v4.74h7.67v2.8h-7.67v6.59h7.9v2.8h-10.88v-19.71h10.88v2.79Z"/><path d="M454.78,441.64l5.45,13.66,5.53-13.66h3.25l-8.85,21.19-8.64-21.19h3.25Z"/><path d="M488.88,444.44h-7.9v4.74h7.67v2.8h-7.67v6.59h7.9v2.8h-10.88v-19.71h10.88v2.79Z"/></g></g><g><path class="cls-2" d="M390.73,245.55l-.89,.51c-3.92,2.24-3.92,7.89,0,10.13l65.07,37.29s6.24,4.05,4.87,12.29-5.01,12.3-10.12,15.22l-27.45,15.73c-.56,.32-1.27-.06-1.31-.71-.53-8.97-5.95-11.39-5.95-11.39l-7.23-4.11-67.61-38.72-3.34-8.97,25.1-39.08,28.86,11.79Z"/><path class="cls-1" d="M422.1,157.73l82.52,47.29c1.55,.89,3.48-.23,3.48-2.02v-19.61c0-.83-.45-1.6-1.17-2.02l-84.83-48.61c-.72-.41-1.6-.41-2.31,0l-84.83,48.61c-.72,.41-1.17,1.18-1.17,2.02v19.61c0,1.79,1.93,2.91,3.48,2.02l82.52-47.29c.72-.41,1.6-.41,2.31,0Z"/><path class="cls-1" d="M340.11,281.8v-3.03c0-2.61,1.4-5.02,3.66-6.32l3.19-1.83,72.83-41.73c.72-.41,1.6-.41,2.31,0l82.52,47.29c1.55,.89,3.48-.23,3.48-2.02v-53.32c0-.83-.45-1.6-1.17-2.02l-84.83-48.61c-.72-.41-1.6-.41-2.31,0l-84.83,48.61c-.72,.41-1.17,1.18-1.17,2.02v45.73s0,11.59,6.32,15.23"/></g></svg>