<?xml version="1.0" encoding="UTF-8"?><svg id="Layer_1" xmlns="http://www.w3.org/2000/svg" xmlns:xlink="http://www.w3.org/1999/xlink" viewBox="0 0 841.89 595.28"><defs><style>.cls-1{fill:url(#linear-gradient);}</style><linearGradient id="linear-gradient" x1="462.44" y1="314.04" x2="261.26" y2="232.26" gradientUnits="userSpaceOnUse"><stop offset="0" stop-color="#000"/><stop offset="1" stop-color="#58595b"/></linearGradient></defs><g><g><rect x="286.34" y="359.52" width="8.03" height="60.83"/><polygon points="361.27 420.36 361.27 359.52 353.24 359.52 353.24 383.85 318.7 383.85 318.7 359.52 310.66 359.52 310.66 420.36 318.7 420.36 318.7 391.32 353.24 391.32 353.24 420.36 361.27 420.36"/><path d="M475.59,405.25l6.53,15.1h8.78l-28.65-63.79-29.7,63.79h8.62l6.93-15.1h27.5Zm-13.48-30.95l10.24,23.47h-20.97l10.73-23.47Z"/><polygon points="555.55 359.52 547.52 359.52 547.52 403.75 502.17 356.3 502.17 420.36 510.2 420.36 510.2 375.81 555.55 423.14 555.55 359.52"/><path d="M379.35,412.41c2.13,3.24,5.1,5.7,8.85,7.32,3.74,1.61,8.43,2.43,13.95,2.43,4.36,0,8.34-.81,11.83-2.41,3.49-1.6,6.21-3.87,8.07-6.76,1.87-2.88,2.81-6,2.81-9.26s-.86-6.24-2.56-8.76c-1.7-2.52-4.37-4.64-7.93-6.28-2.48-1.12-6.91-2.4-13.55-3.91-6.52-1.47-10.6-2.93-12.14-4.33-1.57-1.4-2.33-3.14-2.33-5.32,0-2.51,1.08-4.6,3.31-6.39,2.2-1.77,5.78-2.66,10.62-2.66s8.21,.99,10.57,2.93c2.37,1.95,3.78,4.86,4.19,8.67v.12s8-.6,8-.6v-.12c-.15-3.59-1.16-6.85-3.03-9.69-1.87-2.84-4.57-5.02-8.04-6.48-3.46-1.46-7.51-2.2-12.03-2.2-4.11,0-7.9,.7-11.26,2.09-3.37,1.39-5.97,3.46-7.73,6.15-1.76,2.69-2.64,5.62-2.64,8.72,0,2.82,.73,5.4,2.16,7.67,1.44,2.27,3.65,4.2,6.57,5.73,2.28,1.21,6.15,2.47,11.83,3.83,5.6,1.35,9.25,2.35,10.87,2.98,2.52,.96,4.35,2.16,5.44,3.57,1.11,1.42,1.64,3.04,1.64,4.95s-.56,3.57-1.71,5.16c-1.13,1.57-2.89,2.83-5.22,3.73-2.34,.91-5.07,1.37-8.13,1.37-3.44,0-6.58-.61-9.33-1.8-2.75-1.2-4.8-2.78-6.1-4.71-1.3-1.93-2.14-4.45-2.5-7.47v-.12s-7.87,.69-7.87,.69v.11c.12,4.09,1.25,7.81,3.38,11.05Z"/></g><g><path d="M363.88,451.78h8.18v.65c0,1.49-.18,2.8-.53,3.95-.34,1.06-.92,2.05-1.73,2.97-1.84,2.07-4.18,3.1-7.01,3.1s-5.14-1-7.12-3c-1.97-2.01-2.96-4.42-2.96-7.23s1-5.31,3.01-7.31c2.01-2.01,4.45-3.01,7.33-3.01,1.55,0,2.99,.32,4.33,.95,1.28,.63,2.54,1.66,3.78,3.08l-2.13,2.04c-1.62-2.16-3.6-3.24-5.94-3.24-2.09,0-3.85,.72-5.27,2.17-1.42,1.42-2.13,3.2-2.13,5.33s.79,4.02,2.37,5.45c1.48,1.32,3.08,1.99,4.81,1.99,1.47,0,2.79-.49,3.96-1.49,1.17-1,1.82-2.2,1.96-3.59h-4.94v-2.81Z"/><path d="M393.3,445.1h-7.94v4.76h7.71v2.81h-7.71v6.62h7.94v2.81h-10.92v-19.8h10.92v2.81Z"/><path d="M403.79,462.09v-21.14l14.44,15.1v-13.76h2.99v21l-14.44-15.07v13.86h-2.99Z"/><path d="M443.45,445.1h-7.94v4.76h7.71v2.81h-7.71v6.62h7.94v2.81h-10.92v-19.8h10.92v2.81Z"/><path d="M454.94,442.29l5.47,13.72,5.55-13.72h3.27l-8.89,21.28-8.68-21.28h3.27Z"/><path d="M489.18,445.1h-7.94v4.76h7.71v2.81h-7.71v6.62h7.94v2.81h-10.92v-19.8h10.92v2.81Z"/></g></g><g><path class="cls-1" d="M390.59,245.31l-.9,.51c-3.93,2.25-3.93,7.93,0,10.18l65.36,37.46s6.27,4.07,4.89,12.35-5.04,12.35-10.16,15.29l-27.57,15.8c-.57,.32-1.28-.06-1.31-.71-.53-9.01-5.98-11.44-5.98-11.44l-7.26-4.12-67.92-38.9-3.35-9.01,25.21-39.26,28.99,11.85Z"/><path d="M422.11,157.1l82.89,47.5c1.56,.89,3.5-.23,3.5-2.03v-19.7c0-.84-.45-1.61-1.17-2.03l-85.21-48.83c-.72-.41-1.6-.41-2.32,0l-85.21,48.83c-.73,.42-1.17,1.19-1.17,2.03v19.7c0,1.8,1.94,2.92,3.5,2.03l82.89-47.5c.72-.41,1.6-.41,2.32,0Z"/><path d="M339.75,281.73v-3.04c0-2.62,1.4-5.04,3.68-6.35l3.2-1.84,73.15-41.92c.72-.41,1.6-.41,2.32,0l82.89,47.5c1.56,.89,3.5-.23,3.5-2.03v-53.56c0-.84-.45-1.61-1.17-2.03l-85.21-48.83c-.72-.41-1.6-.41-2.32,0l-85.21,48.83c-.73,.42-1.17,1.19-1.17,2.03v45.93s0,11.64,6.35,15.3"/></g></svg>